<svg xmlns="http://www.w3.org/2000/svg" width="1200" height="760" viewBox="0 0 1200 760">
  <rect width="1200" height="760" fill="#f5f7fc"/>
  <rect x="32" y="28" width="1136" height="704" rx="24" fill="#ffffff" stroke="#dfe5f2"/>
  <text x="72" y="92" font-family="Arial, sans-serif" font-size="42" fill="#121826" font-weight="700">Kalendář rezervací</text>

  <rect x="72" y="128" width="1056" height="560" rx="18" fill="#fcfdff" stroke="#dfe6f7"/>
  <text x="104" y="178" font-family="Arial, sans-serif" font-size="34" fill="#172033" font-weight="700">Únor 2026</text>

  <text x="126" y="228" font-family="Arial, sans-serif" font-size="20" fill="#64748b">Po</text>
  <text x="276" y="228" font-family="Arial, sans-serif" font-size="20" fill="#64748b">Út</text>
  <text x="426" y="228" font-family="Arial, sans-serif" font-size="20" fill="#64748b">St</text>
  <text x="576" y="228" font-family="Arial, sans-serif" font-size="20" fill="#64748b">Čt</text>
  <text x="726" y="228" font-family="Arial, sans-serif" font-size="20" fill="#64748b">Pa</text>
  <text x="876" y="228" font-family="Arial, sans-serif" font-size="20" fill="#64748b">So</text>
  <text x="1026" y="228" font-family="Arial, sans-serif" font-size="20" fill="#64748b">Ne</text>

  <g font-family="Arial, sans-serif" font-size="28" fill="#1e293b">
    <text x="118" y="288">2</text><text x="268" y="288">3</text><text x="418" y="288">4</text><text x="568" y="288">5</text><text x="718" y="288">6</text><text x="868" y="288">7</text><text x="1018" y="288">8</text>
    <text x="118" y="364">9</text><text x="258" y="364">10</text><text x="406" y="364">11</text><text x="556" y="364">12</text><text x="706" y="364">13</text><text x="856" y="364">14</text><text x="1006" y="364">15</text>
    <text x="108" y="440">16</text><text x="258" y="440">17</text><text x="408" y="440">18</text><text x="558" y="440">19</text><text x="708" y="440">20</text><text x="858" y="440">21</text><text x="1008" y="440">22</text>
    <text x="108" y="516">23</text><text x="258" y="516">24</text><text x="408" y="516">25</text><text x="558" y="516">26</text><text x="708" y="516">27</text><text x="858" y="516">28</text>
  </g>

  <circle cx="126" cy="374" r="7" fill="#2563eb"/>
  <circle cx="566" cy="374" r="7" fill="#2563eb"/>
  <circle cx="416" cy="450" r="7" fill="#2563eb"/>
  <circle cx="866" cy="450" r="7" fill="#2563eb"/>
  <circle cx="566" cy="526" r="7" fill="#2563eb"/>

  <rect x="72" y="616" width="1056" height="72" rx="12" fill="#f1f5ff" stroke="#d8e4ff"/>
  <text x="100" y="662" font-family="Arial, sans-serif" font-size="24" fill="#355ab8">Modrá tečka označuje den s rezervací.</text>
</svg>
