<svg xmlns="http://www.w3.org/2000/svg" width="1200" height="760" viewBox="0 0 1200 760">
  <rect width="1200" height="760" fill="#f5f7fc"/>
  <rect x="32" y="28" width="1136" height="704" rx="24" fill="#ffffff" stroke="#dfe5f2"/>
  <text x="72" y="92" font-family="Arial, sans-serif" font-size="42" fill="#121826" font-weight="700">Notifikace</text>

  <rect x="72" y="128" width="1056" height="270" rx="16" fill="#fcfdff" stroke="#dfe6f7"/>
  <text x="102" y="174" font-family="Arial, sans-serif" font-size="34" fill="#172033" font-weight="700">E-mailove notifikace</text>

  <rect x="98" y="196" width="1008" height="54" rx="10" fill="#f7f8fa"/>
  <text x="118" y="230" font-family="Arial, sans-serif" font-size="22" fill="#1f2937">Pripomenuti rezervace</text>
  <text x="1086" y="230" text-anchor="end" font-family="Arial, sans-serif" font-size="20" fill="#2563eb">Funkcni v PRO verzi</text>

  <rect x="98" y="260" width="1008" height="54" rx="10" fill="#f7f8fa"/>
  <text x="118" y="294" font-family="Arial, sans-serif" font-size="22" fill="#1f2937">Potvrzeni o zruseni rezervace</text>
  <text x="1086" y="294" text-anchor="end" font-family="Arial, sans-serif" font-size="20" fill="#2563eb">Funkcni v PRO verzi</text>

  <rect x="98" y="324" width="1008" height="54" rx="10" fill="#f7f8fa"/>
  <text x="118" y="358" font-family="Arial, sans-serif" font-size="22" fill="#1f2937">Zaslani dokladu na e-mail</text>
  <text x="1086" y="358" text-anchor="end" font-family="Arial, sans-serif" font-size="20" fill="#2563eb">Funkcni v PRO verzi</text>

  <rect x="72" y="426" width="1056" height="270" rx="16" fill="#fffcfa" stroke="#f1e1d4"/>
  <text x="102" y="472" font-family="Arial, sans-serif" font-size="34" fill="#172033" font-weight="700">SMS notifikace</text>

  <rect x="98" y="494" width="1008" height="54" rx="10" fill="#fff6f0"/>
  <text x="118" y="528" font-family="Arial, sans-serif" font-size="22" fill="#1f2937">Pripomenuti rezervace den predem</text>
  <text x="1086" y="528" text-anchor="end" font-family="Arial, sans-serif" font-size="20" fill="#2563eb">Funkcni v PRO verzi</text>

  <rect x="98" y="558" width="1008" height="54" rx="10" fill="#fff6f0"/>
  <text x="118" y="592" font-family="Arial, sans-serif" font-size="22" fill="#1f2937">Potvrzeni zmeny terminu</text>
  <text x="1086" y="592" text-anchor="end" font-family="Arial, sans-serif" font-size="20" fill="#2563eb">Funkcni v PRO verzi</text>

  <rect x="98" y="622" width="1008" height="54" rx="10" fill="#fff6f0"/>
  <text x="118" y="656" font-family="Arial, sans-serif" font-size="22" fill="#1f2937">Potvrzeni zruseni rezervace</text>
  <text x="1086" y="656" text-anchor="end" font-family="Arial, sans-serif" font-size="20" fill="#2563eb">Funkcni v PRO verzi</text>
</svg>
